<svg width="256" height="256" viewBox="0 0 256 256" xmlns="http://www.w3.org/2000/svg" role="img" aria-label="HammerLock AI armored mascot">
  <defs>
    <linearGradient id="armor" x1="0%" y1="0%" x2="100%" y2="100%">
      <stop offset="0%" stop-color="#2bff87" />
      <stop offset="100%" stop-color="#0b5924" />
    </linearGradient>
    <linearGradient id="shadow" x1="0%" y1="0%" x2="100%" y2="100%">
      <stop offset="0%" stop-color="#020202" />
      <stop offset="100%" stop-color="#0c0c0c" />
    </linearGradient>
  </defs>
  <rect width="256" height="256" rx="32" fill="#000000" />
  <ellipse cx="128" cy="210" rx="70" ry="18" fill="url(#shadow)" opacity="0.6" />
  <g transform="translate(60 40)">
    <path d="M68 0c-26 0-52 14-52 44v34c0 24 22 40 52 44s52-12 52-36V44C120 14 94 0 68 0z" fill="url(#armor)" stroke="#043715" stroke-width="4" />
    <path d="M28 104h80l-10 56c-2 12-12 20-24 20H62c-12 0-22-8-24-20z" fill="#0c100f" stroke="#0f2117" stroke-width="3" />
    <path d="M22 104l-12 40c-2 10 2 18 10 20l18 4" fill="none" stroke="#22c764" stroke-width="4" stroke-linecap="round" />
    <path d="M114 104l12 40c2 10-2 18-10 20l-18 4" fill="none" stroke="#22c764" stroke-width="4" stroke-linecap="round" />
    <path d="M50 150l-6 36h28l6-28z" fill="#0e441f" stroke="#031208" stroke-width="3" />
    <path d="M86 150l6 36H64l-6-28z" fill="#0e441f" stroke="#031208" stroke-width="3" />
    <path d="M44 48h18c2 0 4 2 4 4v12c0 2-2 4-4 4H44c-2 0-4-2-4-4V52c0-2 2-4 4-4zm52 0h18c2 0 4 2 4 4v12c0 2-2 4-4 4H96c-2 0-4-2-4-4V52c0-2 2-4 4-4z" fill="#020402" />
    <path d="M60 84h16" stroke="#05431a" stroke-width="4" stroke-linecap="round" />
    <path d="M52 -6h32l14 20H38z" fill="#043216" />
    <circle cx="50" cy="54" r="6" fill="#a2f5ff" />
    <circle cx="110" cy="54" r="6" fill="#a2f5ff" />
  </g>
</svg>
